<?xml version="1.0" encoding="UTF-8"?>
<svg width="40" height="40" viewBox="0 0 40 40" fill="none" xmlns="http://www.w3.org/2000/svg">
    <!-- Outer Hexagon -->
    <path d="M20 2L36 11V29L20 38L4 29V11L20 2Z" stroke="#007BFF" stroke-width="2" fill="none"/>
    
    <!-- Inner Hexagon -->
    <path d="M20 8L32 15V25L20 32L8 25V15L20 8Z" fill="#007BFF" fill-opacity="0.2"/>
    
    <!-- Bee Wings -->
    <path d="M20 15C22.7614 15 25 12.7614 25 10C25 7.23858 22.7614 5 20 5C17.2386 5 15 7.23858 15 10C15 12.7614 17.2386 15 20 15Z" fill="#007BFF" fill-opacity="0.3"/>
    <path d="M20 35C22.7614 35 25 32.7614 25 30C25 27.2386 22.7614 25 20 25C17.2386 25 15 27.2386 15 30C15 32.7614 17.2386 35 20 35Z" fill="#007BFF" fill-opacity="0.3"/>
    
    <!-- Center Dot -->
    <circle cx="20" cy="20" r="3" fill="#007BFF"/>
</svg> 